#!OML:ASF X:\für Bonn\!DataBase\2005_08_11_Bastian_Final\c3d\Bastian.ASF
:FULLY-SPECIFIED
:DEGREES
246
root 2.42143 17.0701 -4.87993 531.64 38.09 -176.337
lowerback 29.6827 -6.81277 6.82573
upperback 18.348 -2.46851 5.64771
thorax 4.37527 0.835408 3.0531
lowerneck -17.2529 -12.9512 -21.0752
upperneck -7.54717 -13.3008 30.3618
head 4.74133 -5.04766 12.0985
rclavicle -1.30403e-013 -1.43125e-014
rhumerus -20.3756 14.7797 -83.3423
rradius 63.0623
rwrist 12.3448
rhand -18.4085 6.93718
rfingers 7.12502
rthumb 7.87605 -22.8961
lclavicle -1.30403e-013 -1.43125e-014
lhumerus -11.4802 -18.7162 91.715
lradius 27.4675
lwrist 15.3457
lhand -17.0108 -7.1414
lfingers 7.12502
lthumb 9.22493 22.6368
rfemur -14.1774 -5.31668 24.56
rtibia 44.4873
rfoot -15.5017 0.826332
rtoes -11.4332
lfemur -11.8693 -0.187645 -10.0174
ltibia 75.8995
lfoot -3.84963 -7.24739
ltoes -33.0759
247
root 2.49572 17.0646 -4.93202 531.521 38.0609 -176.297
lowerback 29.685 -6.73808 6.83606
upperback 18.3579 -2.36751 5.62931
thorax 4.38262 0.891399 3.00451
lowerneck -17.3226 -12.994 -21.0602
upperneck -7.49361 -13.3596 30.3128
head 4.77454 -5.06916 12.0629
rclavicle 2.22639e-014 9.70069e-014
rhumerus -20.2112 15.0446 -83.4935
rradius 63.4942
rwrist 12.5489
rhand -18.3594 7.00796
rfingers 7.12502
rthumb 7.92343 -22.8235
lclavicle 2.22639e-014 9.70069e-014
lhumerus -11.8492 -18.3577 91.6103
lradius 26.6259
lwrist 15.5806
lhand -16.6486 -7.14667
lfingers 7.12502
lthumb 9.57443 22.6158
rfemur -13.7492 -5.39679 24.6601
rtibia 44.6198
rfoot -15.7451 0.787505
rtoes -10.8089
lfemur -12.6187 -0.195226 -10.1041
ltibia 75.6404
lfoot -4.33492 -7.48215
ltoes -32.2182
248
root 2.57151 17.0581 -4.98447 531.406 38.0412 -176.275
lowerback 29.6574 -6.65029 6.80435
upperback 18.3686 -2.26856 5.61085
thorax 4.40378 0.941115 2.97733
lowerneck -17.3965 -13.0405 -21.0618
upperneck -7.42351 -13.4251 30.2804
head 4.81832 -5.09279 12.0353
rclavicle -3.97569e-014 4.92986e-014
rhumerus -20.041 15.3788 -83.6385
rradius 63.9097
rwrist 12.6831
rhand -18.3717 7.06563
rfingers 7.12502
rthumb 7.91159 -22.7663
lclavicle -3.97569e-014 4.92986e-014
lhumerus -12.2666 -18.0393 91.5127
lradius 25.8595
lwrist 15.8038
lhand -16.318 -7.18063
lfingers 7.12502
lthumb 9.89338 22.5669
rfemur -13.3366 -5.47106 24.7448
rtibia 44.7533
rfoot -15.9999 0.773201
rtoes -10.0036
lfemur -13.3399 -0.22589 -10.2087
ltibia 75.269
lfoot -4.76175 -7.77132
ltoes -31.5446
249
root 2.64582 17.0496 -5.03714 531.304 38.0107 -176.243
lowerback 29.6351 -6.55908 6.79387
upperback 18.3618 -2.16205 5.59187
thorax 4.40291 0.994518 2.93621
lowerneck -17.38 -13.0755 -21.0641
upperneck -7.41919 -13.4775 30.2675
head 4.82838 -5.11844 12.02
rclavicle 1.90833e-014 -6.04305e-014
rhumerus -19.8714 15.6754 -83.772
rradius 64.2843
rwrist 12.842
rhand -18.4289 7.20087
rfingers 7.12502
rthumb 7.85643 -22.6331
lclavicle 1.90833e-014 -6.04305e-014
lhumerus -12.7403 -17.9444 91.4282
lradius 25.1612
lwrist 16.0238
lhand -16.0519 -7.10915
lfingers 7.12502
lthumb 10.1501 22.626
rfemur -12.9385 -5.52207 24.8411
rtibia 44.8926
rfoot -16.2548 0.694541
rtoes -9.51675
lfemur -14.063 -0.269526 -10.3042
ltibia 74.8237
lfoot -5.10022 -8.11049
ltoes -30.9293
250
root 2.72047 17.042 -5.09004 531.2 38.0027 -176.187
lowerback 29.6197 -6.46799 6.78001
upperback 18.369 -2.05217 5.57835
thorax 4.41511 1.05099 2.9027
lowerneck -17.3758 -13.1176 -21.0929
upperneck -7.40799 -13.535 30.2619
head 4.8465 -5.14493 12.0111
rclavicle 1.11319e-014 -2.06736e-014
rhumerus -19.7238 16.0046 -83.8973
rradius 64.7165
rwrist 12.9733
rhand -18.498 7.31632
rfingers 7.12502
rthumb 7.7897 -22.5202
lclavicle 1.11319e-014 -2.06736e-014
lhumerus -13.2553 -17.921 91.3598
lradius 24.5551
lwrist 16.2204
lhand -15.8714 -6.96385
lfingers 7.12502
lthumb 10.3242 22.7627
rfemur -12.509 -5.57505 24.9581
rtibia 45.019
rfoot -16.5245 0.64599
rtoes -8.92841
lfemur -14.7469 -0.288284 -10.3624
ltibia 74.328
lfoot -5.41919 -8.48571
ltoes -30.5063
251
root 2.79413 17.0343 -5.14409 531.083 37.9921 -176.158
lowerback 29.5784 -6.37632 6.75179
upperback 18.3938 -1.94702 5.55687
thorax 4.45708 1.10598 2.86974
lowerneck -17.4305 -13.1716 -21.1212
upperneck -7.35862 -13.6069 30.2659
head 4.88996 -5.17199 12.0015
rclavicle 4.77083e-015 -3.81667e-014
rhumerus -19.5088 16.3135 -83.9944
rradius 65.1115
rwrist 13.0837
rhand -18.5551 7.4618
rfingers 7.12502
rthumb 7.73458 -22.3767
lclavicle 4.77083e-015 -3.81667e-014
lhumerus -13.7574 -18.0459 91.3139
lradius 24.0153
lwrist 16.4918
lhand -15.7521 -6.77406
lfingers 7.12502
lthumb 10.4393 22.9468
rfemur -12.0829 -5.63014 25.0467
rtibia 45.1395
rfoot -16.8003 0.576591
rtoes -8.37667
lfemur -15.4252 -0.329438 -10.4552
ltibia 73.7868
lfoot -5.77407 -8.80381
ltoes -30.1748
252
root 2.8681 17.0263 -5.19849 530.986 37.9721 -176.099
lowerback 29.5419 -6.29017 6.74079
upperback 18.4023 -1.8463 5.54025
thorax 4.47916 1.15815 2.83354
lowerneck -17.4396 -13.2138 -21.129
upperneck -7.34164 -13.6661 30.2392
head 4.90777 -5.1989 11.9798
rclavicle -8.74653e-014 2.06736e-014
rhumerus -19.3102 16.6282 -84.0865
rradius 65.4717
rwrist 13.2359
rhand -18.6749 7.62093
rfingers 7.12502
rthumb 7.61895 -22.2218
lclavicle -8.74653e-014 2.06736e-014
lhumerus -14.3163 -18.1573 91.2896
lradius 23.5403
lwrist 16.6899
lhand -15.6537 -6.46432
lfingers 7.12502
lthumb 10.5343 23.2517
rfemur -11.6418 -5.68818 25.1592
rtibia 45.2411
rfoot -17.0762 0.524031
rtoes -7.7138
lfemur -16.0871 -0.356191 -10.5035
ltibia 73.1927
lfoot -6.10285 -9.14909
ltoes -29.7738
253
root 2.9419 17.0176 -5.25442 530.874 37.9608 -176.074
lowerback 29.4731 -6.1983 6.72472
upperback 18.4189 -1.74666 5.50215
thorax 4.52254 1.21029 2.77738
lowerneck -17.4435 -13.2511 -21.1259
upperneck -7.32747 -13.7207 30.2328
head 4.92498 -5.22325 11.965
rclavicle -4.6118e-014 9.06458e-014
rhumerus -19.1444 16.9435 -84.1892
rradius 65.8747
rwrist 13.2965
rhand -18.8066 7.69184
rfingers 7.12502
rthumb 7.49185 -22.1555
lclavicle -4.6118e-014 9.06458e-014
lhumerus -14.9208 -18.526 91.2858
lradius 23.1822
lwrist 16.9968
lhand -15.6862 -6.07727
lfingers 7.12502
lthumb 10.5029 23.6403
rfemur -11.2032 -5.7397 25.2415
rtibia 45.3435
rfoot -17.3676 0.448943
rtoes -7.32756
lfemur -16.7142 -0.389258 -10.595
ltibia 72.5368
lfoot -6.42219 -9.48604
ltoes -29.2854
